<?xml version="1.0" encoding="utf-8"?>
<!-- Generator: Adobe Illustrator 17.0.2, SVG Export Plug-In . SVG Version: 6.00 Build 0)  -->
<!DOCTYPE svg PUBLIC "-//W3C//DTD SVG 1.1//EN" "http://www.w3.org/Graphics/SVG/1.1/DTD/svg11.dtd">
<svg version="1.1" id="Layer_1" xmlns="http://www.w3.org/2000/svg" xmlns:xlink="http://www.w3.org/1999/xlink" x="0px" y="0px"
	 width="302.066px" height="156.753px" viewBox="0 0 302.066 156.753" enable-background="new 0 0 302.066 156.753"
	 xml:space="preserve">
<path fill="#FFFFFF" stroke="#E9464D" stroke-width="7" stroke-miterlimit="10" d="M294.801,67.693
	c1.071,4.048-1.815,8.323-6.447,9.549L37.019,143.754c-4.632,1.226-9.255-1.062-10.326-5.11l-14.653-55.37
	c-1.071-4.048,1.815-8.323,6.447-9.549L269.822,7.213c4.632-1.226,9.255,1.062,10.326,5.11L294.801,67.693z"/>
<g>
	<path fill="#E9464D" d="M63.106,111.83l-2.572-3.646l-10.23,2.707l-0.433,4.44l-5.759,1.524l2.879-26.292l6.367-1.686
		l15.508,21.427L63.106,111.83z M51.518,94.8l-1.003,11.251l7.44-1.969L51.518,94.8z"/>
	<path fill="#E9464D" d="M71.081,109.719L64.767,85.86l11.161-2.954c5.187-1.372,8.94,1.385,10.048,5.57
		c1.099,4.15-0.836,8.413-5.987,9.775l-6.082,1.609l2.253,8.514L71.081,109.719z M80.788,89.849c-0.53-2.003-2.39-2.813-4.393-2.283
		l-5.366,1.42l1.695,6.404l5.366-1.42C80.093,93.44,81.309,91.817,80.788,89.849z"/>
	<path fill="#E9464D" d="M93.436,103.803l-6.314-23.859l11.16-2.954c5.188-1.372,8.941,1.385,10.048,5.57
		c1.099,4.15-0.836,8.412-5.987,9.775l-6.081,1.609l2.253,8.514L93.436,103.803z M103.144,83.932
		c-0.53-2.002-2.39-2.812-4.393-2.282l-5.366,1.42l1.695,6.404l5.366-1.42C102.448,87.524,103.665,85.901,103.144,83.932z"/>
	<path fill="#E9464D" d="M115.577,97.944l-6.314-23.859l5.116-1.354l5.131,19.389l10.087-2.67l1.183,4.471L115.577,97.944z"/>
	<path fill="#E9464D" d="M134.214,93.012l-6.314-23.859l5.079-1.345l6.314,23.859L134.214,93.012z"/>
	<path fill="#E9464D" d="M144.013,90.419l-6.314-23.859l16.883-4.468l1.183,4.471l-11.804,3.124l1.325,5.009l11.554-3.058
		l1.184,4.471l-11.554,3.058l1.439,5.438l11.804-3.124l1.183,4.471L144.013,90.419z"/>
	<path fill="#E9464D" d="M164.866,84.9l-6.314-23.859l9.407-2.489c7.476-1.979,13.922,1.405,15.816,8.561
		c1.912,7.225-2.025,13.32-9.466,15.289L164.866,84.9z M178.588,68.485c-1.107-4.186-4.544-6.76-9.409-5.473l-4.364,1.155
		l3.948,14.918l4.328-1.146C177.812,76.69,179.667,72.562,178.588,68.485z"/>
	<path fill="#E9464D" d="M199.74,75.672l-6.314-23.859l16.884-4.468l1.184,4.471l-11.805,3.124l1.325,5.009l11.554-3.058
		l1.184,4.471l-11.554,3.058l2.622,9.909L199.74,75.672z"/>
	<path fill="#E9464D" d="M215.866,58.657c-1.902-7.19,1.992-13.732,9.219-15.645c7.189-1.903,13.812,1.856,15.714,9.046
		c1.903,7.189-1.992,13.733-9.183,15.636C224.39,69.608,217.769,65.847,215.866,58.657z M235.576,53.442
		c-1.183-4.472-4.899-7.086-9.299-5.922c-4.436,1.174-6.371,5.284-5.188,9.755c1.175,4.436,4.898,7.086,9.335,5.913
		C234.823,62.023,236.75,57.877,235.576,53.442z"/>
	<path fill="#E9464D" d="M261.012,59.457l-6.93-7.238l-3.721,0.985l2.244,8.478l-5.079,1.344l-6.314-23.859l11.16-2.953
		c4.973-1.316,8.91,1.125,10.084,5.561c1.108,4.186-0.97,7.186-3.384,8.475l7.806,7.656L261.012,59.457z M257.225,43.12
		c-0.521-1.968-2.382-2.777-4.384-2.248l-5.366,1.42l1.704,6.439l5.366-1.42C256.548,46.782,257.764,45.158,257.225,43.12z"/>
</g>
</svg>
