<?xml version="1.0" encoding="utf-8"?>
<!-- Generator: Adobe Illustrator 17.0.2, SVG Export Plug-In . SVG Version: 6.00 Build 0)  -->
<!DOCTYPE svg PUBLIC "-//W3C//DTD SVG 1.1//EN" "http://www.w3.org/Graphics/SVG/1.1/DTD/svg11.dtd">
<svg version="1.1" id="Layer_1" xmlns="http://www.w3.org/2000/svg" xmlns:xlink="http://www.w3.org/1999/xlink" x="0px" y="0px"
	 width="1600px" height="280px" viewBox="0 0 1600 280" enable-background="new 0 0 1600 280" xml:space="preserve">
<path fill="#4D8ED0" d="M1517.52,169.141c22.285-8.457,53.145-29.058,53.145-78.477c0-55.317-36.426-87.065-99.99-87.065H1367.15
	V276.24l53.457-0.117v-96.816h37.383l2.158-0.352l65.615,96.963h64.619L1517.52,169.141L1517.52,169.141z M1469.512,129.766h-48.906
	V53.921h48.906c24.756,0,47.715,4.6,47.715,37.925C1517.227,118.784,1503.398,129.766,1469.512,129.766z"/>
<path fill="#4D8ED0" d="M1086.602,113.511l-14.043-6.016c-24.062-10.415-34.521-17.251-34.521-34.102
	c0-13.633,10.459-24.067,26.904-24.067c16.045,0,26.484,6.816,36.074,24.067l43.77-28.081
	c-18.457-32.49-44.141-44.927-79.844-44.927c-50.146,0-82.236,32.09-82.236,74.224c0,45.718,26.875,67.393,67.383,84.648
	l14.033,6.006c25.703,11.221,40.938,18.037,40.938,37.305c0,16.045-14.854,27.676-38.125,27.676
	c-27.686,0-43.301-14.424-55.361-34.092l-45.723,26.465c16.436,32.51,50.146,57.383,102.285,57.383
	c53.35,0,93.086-27.676,93.086-78.232C1161.221,154.834,1134.336,133.96,1086.602,113.511L1086.602,113.511z"/>
<polygon fill="#4D8ED0" points="1230.117,169.131 1331.016,169.131 1331.016,121.001 1230.117,121.001 1230.117,52.944 
	1345.84,52.944 1345.84,3.599 1173.936,3.599 1173.936,276.377 1351.465,276.377 1351.465,227.041 1230.117,227.041 "/>
<path fill="#4D8ED0" d="M155.327,127.5c23.54-7.593,38.306-24.756,38.306-49.902c0-42.49-28.359-74.087-79.023-74.087H9.619v271.44
	h109.746c56.689,0,91.03-31.699,91.03-79.98C210.396,161.045,192.456,136.279,155.327,127.5L155.327,127.5z M65.503,52.607h45.908
	c17.144,0,27.144,9.805,27.144,29.395c0,19.502-11.973,29.38-29.937,29.38H65.503C65.503,111.382,65.503,52.607,65.503,52.607z
	 M117.007,225.85H65.503v-66.963h51.504c22.661,0,36.997,11.26,37.114,33.486C154.004,214.57,139.668,225.85,117.007,225.85
	L117.007,225.85z"/>
<polygon fill="#4D8ED0" points="932.627,4.077 916.504,48.56 880.127,147.329 811.523,6.89 809.062,1.665 806.523,1.665 
	806.27,1.665 803.711,1.665 801.26,6.89 732.656,147.329 696.304,48.56 680.156,4.077 620.771,4.077 721.489,279.277 727.1,279.277 
	752.988,224.502 806.396,116.543 859.814,224.502 885.674,279.277 891.318,279.277 991.982,4.077 "/>
<path fill="#4D8ED0" d="M503.35,0c-38.013,0-72.222,13.486-97.7,36.211c-16.577-21.099-44.883-32.612-83.008-32.612h-103.53V276.24
	l53.438-0.117v-96.816h37.393l2.183-0.352l65.581,96.963h64.644l-72.886-106.777c18.169-6.895,41.997-21.885,50.225-53.95
	c10.161-37.593,44.482-65.244,85.288-65.244c48.818,0,88.403,39.585,88.403,88.408s-39.585,88.394-88.403,88.394
	c-8.13,0-15.991-1.123-23.472-3.193l37.397,53.086c72.192-7.109,127.51-63.311,127.51-137.93C646.411,58.818,582.998,0,503.35,0
	L503.35,0z M321.475,129.766h-48.926V53.921h48.926c24.761,0,47.695,4.6,47.695,37.925
	C369.17,118.784,355.376,129.766,321.475,129.766z"/>
</svg>
